<?xml version="1.0" encoding="utf-8"?>
<svg version="1.1" id="Layer_1" xmlns="http://www.w3.org/2000/svg" xmlns:xlink="http://www.w3.org/1999/xlink" x="0px" y="0px"
	 viewBox="0 0 60 41" style="enable-background:new 0 0 60 41;" xml:space="preserve">
<style type="text/css">
	.background{fill:var(--background-color, #EDD919);}
	.foreground{fill:var(--foreground-color, #FFFFFF);}
</style>
<rect class="background" width="60" height="41"/>
<path class="foreground" d="M33.6,20.5l9-9c1-1,1-2.7,0-3.6c-1-1-2.7-1-3.6,0l-9,9l-9-9c-1-1-2.7-1-3.6,0c-1,1-1,2.7,0,3.6l9,9l-9,9
	c-1,1-1,2.7,0,3.6c1,1,2.7,1,3.6,0l9-9l9,9c1,1,2.7,1,3.6,0c1-1,1-2.7,0-3.6L33.6,20.5z"/>
</svg>
