
<svg version="1.1" id="Layer_1" xmlns="http://www.w3.org/2000/svg" xmlns:xlink="http://www.w3.org/1999/xlink" x="0px" y="0px" viewBox="0 0 1000 1000">
		<rect class="background" width="1000" height="1000"/>
		<path class="foreground" fill="black" d="M500.2,271.24c20.7,13.11,41.97,27.81,63.52,43.31c21.52,15.56,43.34,31.89,65,48.53c5.43,4.13,10.84,8.31,16.23,12.48
				c5.4,4.17,10.8,8.33,16.18,12.48c10.75,8.33,21.44,16.61,32,24.79c2.65,2.04,5.29,4.07,7.92,6.1c2.09,1.62,4.18,3.23,6.26,4.85
				c1.16,0.9,2.28,1.83,3.4,2.76l1.68,1.39l1.63,1.44c4.34,3.83,8.32,7.9,11.77,12.22c3.44,4.33,6.28,8.92,8.55,13.73
				c2.23,4.81,3.84,9.89,4.67,15.11c0.16,1.31,0.29,2.63,0.43,3.94c0.09,1.32,0.21,2.64,0.25,3.96c-0.04,1.32-0.08,2.64-0.16,3.95
				c-0.12,1.31-0.18,2.62-0.34,3.92c-0.69,5.2-2.14,10.21-4.15,14.97c-2.04,4.75-4.63,9.29-7.73,13.57
				c-3.73,5.14-8.23,9.97-13.22,14.51c-2.49,2.27-5.1,4.47-7.77,6.63l-3.7,3.02l-2.12,1.8c-5.68,4.78-11.38,9.58-17.11,14.4
				c-11.45,9.6-22.99,19.27-34.59,28.98c-11.59,9.68-23.23,19.42-34.91,29.17c-2.92,2.43-5.84,4.87-8.76,7.31l-8.72,7.36
				c-5.82,4.89-11.64,9.79-17.46,14.69c-11.56,9.87-23.21,19.64-34.63,29.56c-11.53,9.82-22.83,19.81-34.13,29.67
				c-5.65,4.93-11.17,9.96-16.74,14.91c-5.56,4.96-11.12,9.89-16.54,14.91c-5.45,4.99-10.88,9.96-16.29,14.9
				c-5.37,4.98-10.64,10-15.93,14.96c-2.28-2.4,1.39-12.66-6.81-7.21c-3.96,2.88-7.5,5.32-10.66,7.39
				c-3.13,2.11-5.89,3.83-8.35,5.22c-4.91,2.79-8.57,4.25-11.4,4.84c-5.66,1.18-7.98-1.18-10.3-3.54
				c-2.31-2.36,21.06-20.46,11.75-16.02c5.23-5.16,11.47-11.06,17.34-16.89c5.89-5.82,11.45-11.54,15.73-15.95
				c8.49-8.88,11.29-13.12-0.71-4.38c-2.36,1.06-5.86,3.62-9.82,7.03c-3.96,3.41-8.47,7.59-13.02,11.72
				c-9.15,8.22-18.18,16.54-23.45,18.18c-10.55,3.34,0.17-14-10.37-10.67c-1.78,1.73-4.01,3.89-6.46,6.27
				c-2.44,2.38-5.14,4.95-7.75,7.61c-5.26,5.28-10.51,10.55-14.01,14.07c-9.37,4.71-0.03-14.04-7.06-6.98
				c-2.92,2.37-5.95,4.86-8.94,7.58c-2.99,2.72-6.04,5.59-9.12,8.57c-3.09,2.99-6.22,6.1-9.39,9.3c-1.58,1.61-3.2,3.21-4.77,4.89
				c-1.57,1.68-3.16,3.38-4.75,5.1c-3.17,3.45-6.39,6.97-9.66,10.52c-1.62,1.78-3.26,3.58-4.9,5.38c-0.82,0.9-1.64,1.81-2.46,2.72
				c-0.81,0.92-1.61,1.85-2.42,2.78c-6.48,7.42-13.05,14.96-19.7,22.43c-1.25-1.09-4.11-0.31-5.21-1.26
				c-0.55-0.47-0.65-1.38,0.12-3.16c0.8-1.8,2.5-4.48,5.54-8.51c57.66-66.55,120.66-128.79,186.49-187.66
				c32.92-29.44,66.56-58.07,100.64-86.05c8.55-6.95,17.06-13.97,25.64-20.87c8.59-6.88,17.16-13.82,25.79-20.66l25.91-20.46
				l13-10.15l3.25-2.54l1.63-1.27l0.81-0.63c0.1-0.07,0.07-0.06,0.07-0.06l-0.01,0l-0.01,0c-0.03,0.03,0.02-0.06,0.02-0.09
				c0.14-0.31-0.22-0.54-0.38-0.44c-0.03,0-0.02,0.03-0.06,0.02l-0.06-0.03l-1.5-1.15l-3.21-2.47l-12.85-9.9
				c-8.61-6.55-17.22-13.1-25.83-19.65c-34.53-26.09-69.36-51.81-104.35-77.3c-69.96-50.98-140.53-101.02-210.42-151.36
				c-31.33-23.9-3.33-12.41,23.71,0.44c-9-4.28-6.16-8.34-15.19-12.63c2.84-4.06,23.73,0.43,56.93,21.66
				c-8.07-5.65-16.12-11.29-24.2-16.94c-7.12-7,2.84-4.07,4.74-6.77c8.08,5.65,16.14,11.29,17.09,9.93
				c0.95-1.35,2.84-4.06,3.79-5.41c-8.06-5.64-24.21-16.94-32.28-22.58c8.06,5.64,16.14,11.28,17.08,9.93
				c0.95-1.35,2.84-4.06,3.79-5.42c17.1,9.93,39.4,29.61,56.48,39.6l2.85-4.05c-15.19-12.7-40.34-28.32-56.49-39.61
				c9.03,4.3,9.98,2.94,11.88,0.23c25.17,15.6,46.53,36.65,73.55,49.65c-8.06-5.68-16.12-11.36-24.18-17.04
				C438.68,221.41,475.16,255.3,500.2,271.24z"/>
</svg>
