<?xml version="1.0" encoding="UTF-8"?>
<svg id="Layer_1" data-name="Layer 1" xmlns="http://www.w3.org/2000/svg" viewBox="0 0 512 512">
  <rect class="background" width="512" height="512" transform="translate(512 512) rotate(180)"/>
  <path class="foreground" d="M138.1,151.5l112.7,104.5-112.7,104.5c-4.6,2.9-1,9.4,6.9,12.2l69.7,25.4c4.3,1.6,8.8,1.5,11.3-.1l148-137.2c1.8-1.2,2.3-2.9,1.8-4.7.5-1.8,0-3.6-1.8-4.7L226.1,114.3c-.1-.1-.2-.1-.2-.2-2.6-1.6-6.9-1.6-11.2,0l-69.7,25.4c-7.9,2.6-11.5,9.1-6.9,12Z"/>
</svg>
