<?xml version="1.0" encoding="utf-8"?>
<svg version="1.1" id="Layer_1" xmlns="http://www.w3.org/2000/svg" xmlns:xlink="http://www.w3.org/1999/xlink" x="0px" y="0px"
	 viewBox="0 0 512 512" style="enable-background:new 0 0 512 512;" xml:space="preserve">
<style type="text/css">
	.background{fill:#EDD919;}
	.foreground{fill:#FFFFFF;}
</style>
<rect class="background" width="512" height="512"/>
<path class="foreground" d="M351.7,256.3c0,3-0.1,5.7-0.4,8.1c-0.3,2.4-0.7,4.5-1.1,6.2c-0.5,1.8-1.1,3.1-1.8,4.1c-0.8,1-1.6,1.7-2.5,2.3
	L169.3,382.4c-1.6,0.9-3.1,1.4-4.3,1.5c-1.2,0.1-2.1-0.5-2.8-1.7c-0.7-1.2-1.2-3.1-1.5-5.7s-0.5-5.9-0.5-10c0-5,0.1-9,0.2-12
	c0.1-3,0.5-5.4,1-7.3c0.5-1.9,1.3-3.3,2.4-4.4c1-1.1,2.4-2,4-2.9L313,255.5l-144.2-82.2c-2-1.1-3.5-2.1-4.6-3.1
	c-1.1-1-2-2.4-2.6-4.4c-0.6-2-1-4.5-1.1-7.6c-0.1-3.1-0.2-7.2-0.2-12.4c0-4.6,0.1-8.2,0.5-10.8c0.3-2.6,0.8-4.4,1.5-5.6
	c0.7-1.1,1.6-1.6,2.8-1.5c1.2,0.2,2.6,0.8,4.3,1.9l177.2,105.6c1.5,0.9,2.7,3.1,3.7,6.5C351.2,245.6,351.7,250.3,351.7,256.3
	L351.7,256.3z"/>
</svg>
