
<svg xmlns="http://www.w3.org/2000/svg" style="display: inline-block;" viewBox="0 0 1000 1000">
		<rect class="background" width="1000" height="1000"/>
		<path  class="foreground" fill="black" d="M535.77,321.47c-18.98,15.24-39.39,30.74-60.53,46.38c-21.09,15.69-42.94,31.49-64.61,47.55
				c-5.44,3.99-10.85,8.01-16.24,12.05c-5.39,4.04-10.77,8.07-16.14,12.09c-10.67,8.12-21.29,16.18-31.62,24.35
				c-2.58,2.04-5.16,4.07-7.73,6.1l-0.85,0.68l-0.23,0.19l-0.43,0.37l-0.79,0.7c-1.02,0.94-1.94,1.95-2.5,3.11
				c-0.58,1.15-0.66,2.52-0.1,3.69c0.55,1.17,1.59,2.04,2.63,2.63c0.65,0.35,1.3,0.63,1.91,0.86l0.89,0.32
				c0.07,0.01,0.13,0.02,0.19,0.04l0.08,0.03l0.02,0.01l0.14,0.1l0.29,0.2l2.31,1.6c6.16,4.3,12.34,8.61,18.55,12.94
				c6.19,4.36,12.36,8.81,18.56,13.26c6.2,4.45,12.39,8.95,18.56,13.53c6.17,4.58,12.35,9.17,18.54,13.77
				c6.14,4.68,12.3,9.37,18.46,14.07c3.07,2.36,6.15,4.73,9.22,7.09l9.17,7.19c6.11,4.81,12.23,9.6,18.3,14.47
				c12.11,9.79,24.24,19.55,36.15,29.58c11.99,9.91,23.74,20.08,35.45,30.16c5.86,5.04,11.6,10.22,17.37,15.3
				c5.76,5.1,11.51,10.17,17.14,15.36c5.65,5.16,11.28,10.3,16.88,15.42c5.57,5.16,11.05,10.38,16.54,15.52
				c-2.28,2.4-12.95-0.84-6.81,7.21c3.21,3.87,5.95,7.33,8.26,10.44c2.28,3.15,4.15,5.93,5.67,8.39c3.04,4.93,4.67,8.61,5.38,11.45
				c1.4,5.68-0.92,8.04-3.23,10.4c-2.31,2.36-21.31-20.7-16.51-11.43c-5.28-5.21-11.71-11.01-17.91-16.59
				c-6.22-5.56-12.25-10.88-17.12-14.71c-9.68-7.73-14.15-10.14-4.33,1.07c1.25,2.29,4.19,5.46,7.84,9.22
				c3.66,3.76,8.11,8.02,12.52,12.32c8.88,8.54,17.38,17.49,19.19,22.68c3.59,10.4-13.94,0.29-10.37,10.67
				c1.75,1.7,3.95,3.83,6.36,6.18c2.41,2.35,5.06,4.88,7.63,7.49c5.17,5.19,10.34,10.38,13.79,13.84c4.51,9.22-13.93,0.08-7.06,6.98
				c2.27,2.88,4.74,5.77,7.27,8.79c2.52,3.02,5.19,6.08,7.96,9.2c2.78,3.11,5.67,6.27,8.66,9.47c1.49,1.6,3.01,3.21,4.53,4.84
				c1.51,1.64,3.04,3.3,4.57,4.97c3.1,3.32,6.26,6.69,9.45,10.1c1.6,1.7,3.22,3.41,4.84,5.13c0.81,0.86,1.63,1.72,2.44,2.58
				c0.8,0.88,1.6,1.76,2.4,2.64c6.41,7.05,12.93,14.21,19.37,21.43c-1.25,1.09-0.87,4.03-1.96,4.99c-0.54,0.48-1.45,0.46-3.11-0.54
				c-1.65-0.96-4.04-2.87-7.56-6.19C617.09,812.57,554.97,754,489.69,698.29c-32.65-27.87-66.09-55.04-100.07-81.75
				c-8.53-6.64-17-13.34-25.57-19.95l-25.75-19.8l-25.9-19.68l-13.01-9.79l-7.26-5.46c-4.36-3.35-8.66-6.59-12.64-10.19
				c-3.99-3.57-7.68-7.34-10.97-11.32c-3.3-3.98-6.07-8.21-8.39-12.61c-2.33-4.4-4.17-8.99-5.45-13.76c-0.29-1.2-0.62-2.39-0.88-3.6
				l-0.64-3.66c-0.26-2.47-0.5-4.94-0.62-7.42c-0.12-1.24,0.01-2.48,0.05-3.73c0.05-1.24,0.15-2.48,0.24-3.72l0.14-1.86l0.28-1.84
				c0.19-1.22,0.36-2.45,0.67-3.65c1.05-4.83,2.59-9.54,4.72-14.04c2.13-4.49,4.72-8.83,7.79-12.95c3.1-4.11,6.57-8.06,10.47-11.75
				c3.87-3.69,8.04-7.22,12.32-10.56l8.14-6.41l12.98-10.24c8.7-6.76,17.39-13.52,26.09-20.28c34.88-26.88,70.1-53.15,105.52-78.92
				c70.83-51.55,142.44-101.05,213.8-149.39c33.24-21.21,12.8,1.13-8.58,22.13c7.12-7,9.96-2.93,17.1-9.93
				c2.84,4.07-8.58,22.11-39.91,46.08c8.07-5.65,16.13-11.29,24.21-16.95c9.02-4.29,2.84,4.07,4.74,6.77
				c-8.08,5.65-16.14,11.29-15.19,12.65c0.95,1.35,2.84,4.06,3.79,5.41c8.06-5.64,24.21-16.93,32.27-22.57
				c-8.06,5.64-16.13,11.28-15.19,12.63c0.95,1.35,2.84,4.06,3.79,5.42c-15.2,12.63-41.26,26.87-56.42,39.55l2.85,4.05
				c17.06-9.97,40.26-28.27,56.4-39.54c-7.13,7-6.18,8.36-4.28,11.07c-23.22,18.27-50.24,31.17-71.45,52.22
				c8.03-5.66,16.06-11.32,24.09-16.98C602.64,280.02,558.74,302.95,535.77,321.47z"/>
</svg>
