<?xml version="1.0" encoding="utf-8"?>
<!-- Generator: Adobe Illustrator 28.3.0, SVG Export Plug-In . SVG Version: 6.00 Build 0)  -->
<svg version="1.1" id="Layer_1" xmlns="http://www.w3.org/2000/svg" xmlns:xlink="http://www.w3.org/1999/xlink" x="0px" y="0px"
	 viewBox="0 0 512 512" style="enable-background:new 0 0 512 512;" xml:space="preserve">
<style type="text/css">
	.st0{fill:#EDD919;}
	.st1{fill:#FFFFFF;}
</style>
<g>
	<rect class="st0" width="512" height="512"/>
</g>
<g>
	<path class="st1" d="M160.3,255.7c0-3,0.2-5.7,0.4-8.1c0.3-2.4,0.7-4.5,1.1-6.2c0.5-1.8,1.1-3.1,1.8-4.1c0.8-1,1.6-1.7,2.5-2.3
		l176.6-105.3c1.7-0.9,3.1-1.4,4.3-1.5c1.2-0.1,2.1,0.5,2.8,1.7c0.7,1.2,1.2,3.1,1.5,5.7c0.3,2.6,0.4,5.9,0.4,10c0,5-0.1,8.9-0.2,12
		c-0.1,3-0.5,5.5-1,7.3c-0.5,1.9-1.3,3.3-2.4,4.4c-1,1.1-2.4,2-4,2.9L199,256.5l144.2,82.2c2,1.1,3.5,2.1,4.6,3.1
		c1.1,1,2,2.4,2.6,4.4c0.6,1.9,1,4.5,1.1,7.6c0.2,3.1,0.2,7.2,0.2,12.4c0,4.6-0.1,8.2-0.4,10.8c-0.3,2.6-0.8,4.4-1.5,5.6
		c-0.7,1.2-1.6,1.6-2.8,1.5c-1.2-0.2-2.6-0.8-4.3-1.9L165.5,276.4c-1.5-0.9-2.7-3.1-3.7-6.5C160.8,266.4,160.3,261.7,160.3,255.7z"
		/>
</g>
</svg>
