<?xml version="1.0" encoding="UTF-8"?>
<svg id="Layer_1" data-name="Layer 1" xmlns="http://www.w3.org/2000/svg" viewBox="0 0 26 33">
  <defs>
    <style>
      .cls-1 {
        fill: #fff;
        opacity: .05;
        stroke-width: 0px;
      }
    </style>
  </defs>
  <path class="cls-1" d="M24.26,22.88c-.01-2.78-1.86-5.3-4.49-6.4,2.38-1.09,4.06-3.42,4.43-6.33l-.03-8.65h-.5c-1.97.01-3.93.76-5.37,2.05-1.5,1.34-2.33,3.12-2.32,5l.05,4.39c0,1.74-1.2,3.04-2.86,3.1h-.19s-.19,0-.19,0c-1.65-.05-2.86-1.36-2.86-3.1l.05-4.39c0-1.88-.81-3.66-2.32-5-1.44-1.29-3.4-2.03-5.37-2.04h-.5s-.03,8.65-.03,8.65c.38,2.9,2.05,5.24,4.43,6.33-2.64,1.09-4.48,3.62-4.49,6.4l-.04,8.61h.51c4-.1,7.27-3.01,7.76-7l-.04-4.36c0-1.78,1.21-3.07,2.86-3.07h.21s.21,0,.21,0c1.65,0,2.85,1.29,2.86,3.07l-.04,4.36c.49,3.99,3.75,6.9,7.76,6.99h.51s-.04-8.59-.04-8.59ZM8.92,20.13l.05,4.3c-.41,3.26-3,5.72-6.27,6.02l.03-7.56c.01-2.84,2.28-5.37,5.28-5.89l2.68-.46-2.67-.53c-2.79-.55-4.85-2.9-5.24-5.92l.03-7.56c1.56.12,3.07.75,4.21,1.77,1.29,1.15,1.99,2.66,1.99,4.24l-.05,4.39c0,1.59.75,2.9,1.94,3.59-1.2.66-1.97,1.98-1.98,3.61ZM17.03,24.43l.05-4.3c0-1.63-.78-2.95-1.98-3.61,1.19-.69,1.95-2,1.94-3.59l-.05-4.39c0-1.59.7-3.09,1.99-4.24,1.14-1.02,2.65-1.65,4.21-1.77l.03,7.56c-.39,3.02-2.45,5.37-5.24,5.92l-2.67.53,2.68.46c3,.51,5.27,3.04,5.28,5.89l.03,7.56c-3.26-.3-5.86-2.76-6.27-6.02Z"/>
</svg>